# xmcd
#
# Track frame offsets: 
#        150
#        12274
#        23755
#        39733
#        54149
#        67929
#        80422
#        89856
#        102989
#        116159
#        131324
#
# Disc length: 1962 seconds
#
# Revision: 0
# Processed by: cddbd v1.5.2PL0 Copyright (c) Steve Scherf et al.
# Submitted via: ExactAudioCopyFreeDBPlugin 1.0
#
DISCID=8807a80b
DTITLE=DNA and The Cellarboys - DNA and The Cellarboys
DYEAR=2014
DGENRE=Country
TTITLE0=Hey Little Lucy
TTITLE1=Hudson Bay
TTITLE2=On The Road
TTITLE3=Ridin' In The Rain
TTITLE4=Country Song
TTITLE5=I Can't
TTITLE6=I'll Take My Guns To Town
TTITLE7=Don't You Walk Out Of Me
TTITLE8=Saturday
TTITLE9=Reckon I Fall
TTITLE10=Never Look Back
EXTD=
EXTT0=
EXTT1=
EXTT2=
EXTT3=
EXTT4=
EXTT5=
EXTT6=
EXTT7=
EXTT8=
EXTT9=
EXTT10=
PLAYORDER=
